<svg width="51" height="51" viewBox="0 0 51 51" fill="none" xmlns="http://www.w3.org/2000/svg">
<g clip-path="url(#clip0_11_34)">
<path d="M51 25.5C51 11.4167 39.5833 0 25.5 0C11.4167 0 0 11.4167 0 25.5C0 39.5833 11.4167 51 25.5 51C39.5833 51 51 39.5833 51 25.5Z" fill="white"/>
<mask id="mask0_11_34" style="mask-type:luminance" maskUnits="userSpaceOnUse" x="6" y="5" width="40" height="41">
<path d="M45.3103 5.57812H6.375V45.4219H45.3103V5.57812Z" fill="white"/>
</mask>
<g mask="url(#mask0_11_34)">
<path d="M45.2897 25.8728C45.2897 24.2404 45.1573 23.0492 44.8706 21.8139H26.2304V29.1816H37.1718C36.9512 31.0126 35.7601 33.7701 33.1129 35.623L33.0758 35.8696L38.9695 40.4354L39.3778 40.4761C43.1278 37.0128 45.2897 31.917 45.2897 25.8728Z" fill="#4285F4"/>
<path d="M26.2305 45.285C31.5908 45.285 36.0909 43.5201 39.3778 40.4761L33.1129 35.6229C31.4365 36.792 29.1863 37.6082 26.2305 37.6082C20.9804 37.6082 16.5244 34.145 14.936 29.3582L14.7031 29.3779L8.57478 34.1207L8.49469 34.3435C11.7594 40.8289 18.4655 45.285 26.2305 45.285Z" fill="#34A853"/>
<path d="M14.936 29.3582C14.5168 28.1228 14.2743 26.7992 14.2743 25.4316C14.2743 24.0638 14.5168 22.7403 14.9139 21.505L14.9028 21.2419L8.69765 16.4229L8.49469 16.5195C7.14911 19.2107 6.37701 22.233 6.37701 25.4316C6.37701 28.6301 7.14911 31.6522 8.49469 34.3435L14.936 29.3582Z" fill="#FBBC05"/>
<path d="M26.2305 13.2547C29.9584 13.2547 32.4731 14.8651 33.907 16.2107L39.5101 10.74C36.069 7.54142 31.5908 5.57812 26.2305 5.57812C18.4655 5.57812 11.7594 10.0341 8.49469 16.5195L14.9139 21.5049C16.5244 16.7181 20.9804 13.2547 26.2305 13.2547Z" fill="#EB4335"/>
</g>
</g>
<defs>
<clipPath id="clip0_11_34">
<rect width="51" height="51" fill="white"/>
</clipPath>
</defs>
</svg>
